<?xml version="1.0" standalone="no"?>
<!DOCTYPE svg PUBLIC "-//W3C//DTD SVG 20010904//EN"
 "http://www.w3.org/TR/2001/REC-SVG-20010904/DTD/svg10.dtd">
<svg version="1.0" xmlns="http://www.w3.org/2000/svg"
 width="500.000000pt" height="499.000000pt" viewBox="0 0 500.000000 499.000000"
 preserveAspectRatio="xMidYMid meet">

<g transform="translate(0.000000,499.000000) scale(0.100000,-0.100000)"
fill="#000000" stroke="none">
<path d="M2250 4650 c-116 -10 -334 -61 -455 -107 -158 -61 -348 -167 -450
-250 -298 -244 -461 -467 -588 -803 -191 -506 -122 -1097 182 -1565 88 -135
293 -362 381 -421 19 -14 64 -45 100 -70 562 -400 1374 -413 1955 -32 73 48
152 105 165 118 3 3 31 27 62 54 57 48 205 210 252 276 231 327 346 704 333
1090 -15 430 -159 796 -439 1117 -186 213 -436 385 -713 489 -248 93 -501 126
-785 104z m510 -99 c259 -56 510 -171 720 -332 93 -71 147 -122 230 -219 83
-96 113 -140 187 -275 157 -286 216 -518 216 -845 -1 -358 -90 -645 -294 -950
-91 -136 -171 -225 -294 -328 -215 -180 -439 -294 -715 -362 -112 -28 -146
-32 -325 -37 -228 -6 -323 3 -493 48 -301 79 -558 226 -772 441 -102 103 -173
195 -273 354 -84 135 -163 361 -203 579 -77 431 55 954 329 1295 60 75 71 87
129 148 229 239 534 408 859 476 68 14 135 27 149 30 14 2 120 3 235 2 174 -2
228 -6 315 -25z"/>
<path d="M2367 4473 c-32 -8 -37 -47 -30 -273 l6 -220 77 0 77 0 -3 232 c-3
225 -3 233 -24 250 -21 17 -63 21 -103 11z"/>
<path d="M2911 4359 c-11 -18 -47 -107 -81 -198 -33 -91 -65 -174 -70 -183
-19 -34 -10 -45 56 -67 37 -12 68 -20 69 -19 8 9 155 424 155 438 0 17 -36 39
-87 54 -18 6 -26 1 -42 -25z"/>
<path d="M1813 4353 c-26 -13 -33 -23 -33 -45 0 -21 151 -419 166 -437 2 -2
23 6 48 17 24 12 56 24 70 28 14 3 26 10 26 15 0 15 -140 361 -163 402 -17 31
-26 37 -51 36 -17 0 -46 -8 -63 -16z"/>
<path d="M2138 4340 c-66 -8 -105 -30 -114 -64 -3 -15 11 -66 39 -142 74 -195
74 -196 100 -188 12 3 23 8 25 9 1 1 -5 34 -15 73 -12 51 -22 72 -35 75 -9 3
-23 17 -29 31 -24 52 26 105 81 84 13 -5 28 -15 32 -21 11 -17 10 -65 -2 -72
-13 -8 -13 -42 1 -105 10 -45 13 -50 38 -50 l28 0 -4 143 c-5 165 -9 201 -26
215 -20 15 -58 19 -119 12z"/>
<path d="M2560 4335 c-12 -14 -16 -57 -18 -192 l-3 -174 27 3 c26 3 29 7 39
70 8 52 8 70 -2 84 -18 24 -16 69 3 88 19 20 64 21 89 2 28 -20 24 -74 -8
-100 -20 -16 -28 -35 -36 -85 -6 -36 -9 -66 -8 -67 1 -1 14 -5 28 -9 25 -6 27
-3 63 97 56 152 70 215 56 249 -15 36 -28 40 -130 46 -74 5 -88 3 -100 -12z"/>
<path d="M3067 4168 c-13 -13 -43 -68 -66 -123 -24 -55 -49 -115 -57 -133 -19
-44 -18 -47 11 -60 23 -11 27 -9 48 26 42 66 44 74 39 117 -4 40 -2 44 26 59
59 30 111 -15 89 -77 -6 -19 -18 -30 -37 -33 -35 -8 -106 -120 -89 -141 19
-23 32 -15 99 59 36 39 84 91 108 115 35 36 42 50 42 83 0 32 -5 43 -32 63
-38 28 -120 67 -142 67 -8 0 -26 -10 -39 -22z"/>
<path d="M1655 4154 c-145 -76 -143 -106 21 -274 66 -68 111 -107 120 -103 20
7 18 13 -25 81 -31 47 -46 61 -67 64 -19 2 -34 13 -44 31 -13 24 -13 30 0 55
12 20 24 28 52 30 48 4 69 -18 66 -69 -1 -30 6 -50 36 -94 42 -60 44 -61 69
-42 15 11 13 21 -18 116 -66 199 -120 252 -210 205z"/>
<path d="M3350 4023 c-41 -43 -115 -121 -162 -173 l-87 -94 41 -36 c85 -72 72
-74 163 21 146 154 225 249 225 270 0 25 -63 89 -88 89 -8 0 -50 -35 -92 -77z"/>
<path d="M1322 4036 c-39 -45 -34 -65 38 -136 100 -99 267 -253 274 -252 4 0
28 18 53 40 55 49 62 36 -109 210 -185 188 -203 198 -256 138z"/>
<path d="M2326 3940 c-303 -37 -551 -175 -731 -405 -36 -46 -65 -87 -65 -93 0
-5 -6 -15 -14 -21 -8 -7 -34 -58 -59 -114 -141 -323 -116 -686 69 -987 64
-104 117 -167 204 -242 173 -150 375 -238 597 -261 519 -52 999 278 1139 785
38 140 44 334 14 483 -61 305 -247 565 -512 718 -183 106 -442 161 -642 137z
m374 -109 c368 -106 650 -420 706 -786 45 -293 -23 -560 -201 -782 -106 -133
-214 -216 -371 -286 -139 -62 -238 -82 -404 -81 -124 1 -159 5 -242 27 -184
50 -328 133 -453 262 -44 45 -89 95 -100 111 -139 203 -193 394 -182 639 7
148 31 246 94 373 118 241 303 406 562 502 118 43 164 49 351 46 133 -3 180
-8 240 -25z"/>
<path d="M2305 3824 c-11 -3 -51 -12 -90 -20 -164 -37 -335 -133 -457 -256
-118 -120 -197 -256 -244 -424 -25 -87 -28 -116 -29 -244 0 -169 19 -259 86
-400 57 -120 101 -184 188 -271 121 -121 276 -211 437 -255 82 -22 291 -30
394 -15 193 29 413 147 546 294 59 65 142 193 177 273 74 169 94 418 48 599
-85 337 -348 603 -686 695 -58 16 -117 23 -215 25 -74 2 -144 2 -155 -1z m559
-230 c9 -8 16 -20 16 -25 0 -5 9 -9 21 -9 49 0 75 -35 44 -60 -8 -7 -15 -19
-15 -28 0 -42 -78 -72 -98 -37 -4 9 -24 23 -43 33 -42 21 -49 55 -19 87 13 14
19 29 15 36 -5 7 -4 10 3 5 6 -3 13 -2 17 4 9 15 41 12 59 -6z m280 -123 c16
-18 16 -22 1 -68 -27 -83 -75 -121 -138 -109 -33 6 -77 59 -77 93 0 23 39 63
62 63 10 0 18 5 18 10 0 15 21 12 42 -7 20 -18 24 -48 7 -58 -6 -4 -21 3 -34
15 -32 30 -59 23 -63 -15 -3 -35 25 -71 64 -81 30 -8 71 18 94 59 14 24 13 27
-13 47 -15 12 -27 30 -27 40 0 13 -9 20 -27 23 -16 2 -6 5 23 6 39 1 55 -4 68
-18z m-1224 -18 c47 -27 67 -92 32 -99 -7 -1 -8 0 -2 3 21 10 9 34 -32 63 -47
34 -63 37 -77 13 -6 -10 -11 -13 -11 -6 0 16 28 43 47 43 8 0 28 -8 43 -17z
m656 -14 c253 -77 414 -290 414 -546 0 -155 -51 -287 -152 -394 -108 -114
-228 -170 -382 -177 -178 -8 -313 42 -439 162 -69 65 -134 182 -156 277 -15
63 -13 205 3 266 55 205 212 363 416 417 84 22 215 20 296 -5z m-736 -65 c0
-17 -17 -18 -23 -1 -3 9 -7 9 -20 -2 -21 -17 -22 -8 -2 13 18 17 45 11 45 -10z
m64 -30 c23 -23 20 -43 -14 -74 -16 -15 -30 -33 -30 -39 0 -23 -28 2 -45 40
-23 51 -42 67 -51 44 -4 -10 -1 -21 7 -26 8 -5 9 -9 3 -9 -6 0 -17 6 -23 13
-17 22 8 46 59 56 67 13 77 13 94 -5z m1290 -80 c9 -3 16 -14 16 -23 0 -11 -3
-12 -8 -4 -4 7 -13 9 -20 4 -15 -9 -4 -44 12 -38 7 3 11 -9 11 -34 0 -42 12
-61 25 -39 5 8 5 22 -1 34 -10 21 -10 21 5 2 21 -26 20 -45 -1 -53 -10 -4 -29
-15 -42 -25 -13 -10 -34 -18 -47 -18 -26 0 -54 34 -54 66 0 12 -7 27 -15 34
-33 27 -7 72 51 90 37 11 49 11 68 4z m-1464 -28 c0 -2 -6 -21 -14 -42 -19
-56 -6 -84 41 -84 22 0 38 21 54 69 7 22 8 20 6 -13 -2 -47 18 -59 35 -21 9
21 9 31 -1 47 -10 16 -10 19 1 16 39 -13 7 -111 -35 -107 -12 1 -34 -4 -49
-11 -23 -11 -31 -10 -53 4 -14 9 -25 20 -25 25 0 5 -9 11 -20 14 -27 7 -26 34
2 33 15 -1 25 8 35 32 11 28 11 32 -2 32 -8 0 -21 -12 -29 -27 -8 -16 -15 -22
-16 -14 0 21 30 51 52 51 10 0 18 -2 18 -4z m27 -210 c33 -39 27 -100 -12
-133 -31 -27 -48 -29 -69 -8 -8 9 -19 15 -23 14 -33 -6 -48 42 -21 69 22 22
38 13 38 -22 0 -19 7 -39 16 -47 14 -11 20 -10 40 14 28 33 30 59 7 98 -19 32
-62 46 -92 30 -19 -10 -22 -21 -36 -103 -12 -73 -62 -36 -51 38 10 78 15 82
102 80 71 -1 78 -3 101 -30z m1521 -3 c2 -13 -2 -23 -9 -23 -7 0 -5 -8 7 -21
14 -15 16 -24 7 -37 -12 -21 -35 -22 -41 -3 -3 10 1 12 17 8 14 -3 21 0 21 8
0 29 -23 25 -55 -9 -37 -41 -54 -44 -80 -15 -16 17 -17 24 -7 51 8 23 9 35 1
45 -18 21 35 17 72 -6 33 -20 59 -18 59 4 0 8 -10 16 -22 18 -20 5 -20 5 2 4
18 -2 26 -9 28 -24z m-330 -709 c41 -29 20 -104 -29 -104 -11 0 -29 5 -40 10
-17 9 -19 7 -19 -18 0 -35 -21 -65 -46 -67 -10 -1 -29 -7 -41 -13 -12 -7 -34
-12 -49 -12 -53 0 -90 63 -39 66 14 1 22 -2 19 -7 -3 -5 -12 -9 -19 -9 -18 0
-9 -26 11 -34 8 -3 31 1 50 9 26 11 34 20 34 39 0 34 -33 52 -54 30 -15 -14
-16 -13 -16 10 0 19 -5 26 -20 26 -21 0 -27 -15 -10 -25 12 -7 4 -25 -11 -25
-6 0 -9 12 -7 28 2 22 8 27 30 27 15 1 35 9 46 18 23 21 76 22 96 1 15 -14 16
-14 16 3 0 10 5 25 10 33 8 11 9 9 5 -11 -4 -17 -1 -32 10 -43 22 -21 41 -20
64 3 25 25 17 57 -18 70 -14 5 -19 10 -11 10 9 1 26 -6 38 -15z m-830 -40 c12
-8 22 -20 22 -26 0 -7 -9 -2 -20 10 -42 45 -115 15 -108 -45 7 -58 108 -68
108 -10 0 27 -39 53 -65 43 -9 -3 -13 -2 -10 4 19 31 85 -8 85 -50 0 -38 -24
-60 -65 -60 -66 0 -97 70 -54 124 24 30 72 35 107 10z m326 -20 c9 -3 16 -14
16 -24 0 -19 -25 -34 -40 -25 -5 3 -6 -17 -3 -44 7 -64 -13 -101 -57 -101 -17
0 -30 2 -30 4 0 2 -3 13 -6 23 -5 17 -5 17 6 1 6 -10 17 -18 25 -18 19 0 45
52 45 91 0 28 -3 31 -25 27 -33 -7 -32 0 1 12 21 8 25 15 22 35 -5 26 11 32
46 19z m-139 -39 c46 -46 19 -135 -42 -135 -35 0 -66 36 -59 68 4 15 7 33 8
40 1 9 9 11 22 8 12 -3 27 -6 35 -6 23 0 2 -14 -22 -15 -15 0 -23 -7 -25 -24
-4 -27 12 -41 49 -41 51 0 67 55 27 97 -50 53 -133 11 -133 -69 0 -55 32 -81
92 -76 37 3 41 1 26 -9 -23 -17 -51 -16 -93 5 -56 28 -67 115 -20 162 30 30
103 27 135 -5z m224 22 c-21 -15 -59 -37 -59 -33 0 11 33 36 47 36 9 0 14 -1
12 -3z m94 -29 c14 -18 20 -43 20 -74 0 -39 -4 -51 -27 -71 -47 -40 -138 -25
-151 24 -3 14 -1 31 6 39 9 11 8 14 -7 14 -11 0 -15 3 -8 8 6 4 13 15 17 25 5
14 15 18 44 15 31 -2 39 -7 41 -25 3 -18 -2 -23 -18 -23 -29 0 -60 -18 -60
-34 0 -23 27 -38 67 -38 78 0 110 87 53 143 -20 20 -24 29 -14 27 10 -2 26
-15 37 -30z m-523 -10 c0 -5 -13 -8 -30 -8 -16 0 -30 3 -30 8 0 4 14 7 30 7
17 0 30 -3 30 -7z"/>
<path d="M2830 3587 c0 -7 6 -19 13 -26 10 -11 8 -11 -10 -2 -17 8 -26 7 -43
-7 -39 -32 -4 -85 40 -62 16 9 18 8 14 -5 -8 -19 13 -45 36 -45 47 0 50 66 5
90 -16 8 -24 19 -20 28 6 15 -11 42 -26 42 -5 0 -9 -6 -9 -13z"/>
<path d="M2890 3542 c0 -4 9 -13 20 -19 20 -13 37 -2 25 17 -7 12 -45 14 -45
2z"/>
<path d="M3110 3470 c0 -5 7 -10 15 -10 8 0 15 -8 16 -17 0 -12 2 -13 6 -5 5
14 -14 42 -28 42 -5 0 -9 -4 -9 -10z"/>
<path d="M3027 3444 c-3 -4 -2 -16 4 -26 13 -24 33 -10 23 15 -6 18 -16 21
-27 11z"/>
<path d="M2301 3424 c-100 -22 -185 -70 -266 -149 -260 -255 -202 -681 118
-864 67 -38 190 -71 267 -71 118 0 284 62 365 138 239 222 249 573 21 797
-140 138 -317 190 -505 149z m321 -111 c184 -89 277 -248 266 -456 -4 -79 -10
-102 -42 -169 -95 -200 -301 -300 -527 -258 -160 30 -312 174 -354 335 -56
219 44 444 245 545 81 41 126 50 237 46 84 -3 100 -7 175 -43z"/>
<path d="M2300 3321 c-139 -45 -221 -114 -282 -239 -42 -84 -43 -87 -43 -191
0 -103 1 -109 39 -189 49 -102 117 -169 226 -221 70 -34 81 -36 175 -36 88 0
109 4 173 29 261 105 363 429 208 660 -110 164 -321 244 -496 187z m144 -150
c9 -30 16 -80 16 -112 0 -35 8 -74 20 -103 l21 -46 93 0 94 0 7 83 c6 64 10
76 16 54 7 -28 12 -76 10 -108 -1 -9 -29 -44 -63 -78 -59 -57 -66 -61 -111
-61 -46 0 -48 -1 -41 -22 12 -39 41 -92 61 -110 11 -10 39 -18 73 -20 l55 -3
-37 -23 c-20 -13 -43 -36 -50 -52 l-13 -30 -167 0 -167 0 -16 31 c-9 17 -33
40 -53 52 l-37 22 59 5 c58 5 60 6 87 50 15 25 31 57 34 73 7 27 7 27 -44 27
-29 0 -51 5 -51 10 0 6 -27 38 -61 71 l-61 60 7 52 c12 85 22 85 29 -2 l7 -81
98 0 97 0 11 43 c7 23 14 65 18 92 13 110 29 195 36 188 4 -5 14 -32 23 -62z"/>
<path d="M2223 2856 l32 -45 167 0 168 -1 35 38 c19 20 35 40 35 45 0 4 -106
7 -235 7 l-235 0 33 -44z"/>
<path d="M2346 2778 c-3 -13 -6 -26 -6 -30 0 -5 36 -8 80 -8 44 0 80 3 80 8 0
4 -3 17 -6 30 -6 20 -12 22 -74 22 -62 0 -68 -2 -74 -22z"/>
<path d="M2306 2685 c-9 -13 -16 -27 -16 -30 0 -3 59 -5 130 -5 72 0 130 2
130 5 0 3 -7 17 -16 30 -15 24 -21 25 -114 25 -93 0 -99 -1 -114 -25z"/>
<path d="M2221 2617 c15 -12 32 -32 38 -44 11 -22 16 -23 171 -23 96 0 160 4
160 10 0 5 14 25 31 45 l31 35 -228 0 -229 -1 26 -22z"/>
<path d="M1824 3343 l-31 -4 24 -50 24 -50 30 37 c16 20 29 38 29 40 0 6 -32
34 -38 32 -4 0 -21 -3 -38 -5z"/>
<path d="M3094 3226 c-10 -26 1 -51 23 -54 19 -3 21 -6 10 -23 -16 -25 2 -54
33 -54 38 0 47 27 25 77 -10 23 -23 49 -28 56 -13 17 -56 15 -63 -2z"/>
<path d="M1592 3033 c-6 -10 -13 -40 -17 -67 -6 -39 -5 -48 6 -44 9 3 17 28
21 63 8 63 5 77 -10 48z"/>
<path d="M1642 2958 c-17 -17 -15 -38 3 -38 9 0 15 9 15 25 0 29 -1 30 -18 13z"/>
<path d="M3157 2998 c-9 -62 37 -95 61 -43 6 14 17 25 24 25 12 0 -60 49 -73
50 -4 0 -9 -15 -12 -32z"/>
<path d="M2748 2249 c-24 -14 -22 -24 4 -26 27 -2 48 -28 48 -60 0 -25 10 -29
28 -11 19 19 14 66 -8 88 -22 22 -46 25 -72 9z"/>
<path d="M2415 2239 c-10 -15 3 -25 16 -12 7 7 7 13 1 17 -6 3 -14 1 -17 -5z"/>
<path d="M2502 2168 c5 -15 37 -18 41 -3 1 6 -9 12 -22 13 -16 3 -22 -1 -19
-10z"/>
<path d="M3442 3812 c-61 -62 -154 -162 -171 -184 -11 -15 -10 -20 3 -34 15
-15 21 -13 71 28 32 25 54 51 55 63 2 63 90 82 119 26 16 -29 14 -44 -10 -70
-15 -16 -30 -22 -54 -19 -26 2 -44 -6 -84 -37 -28 -22 -50 -42 -50 -45 0 -3 6
-14 14 -24 14 -19 19 -17 137 43 117 60 188 114 188 144 0 8 -11 29 -25 48
-13 19 -32 48 -41 64 -21 38 -32 45 -72 45 -26 0 -43 -10 -80 -48z"/>
<path d="M1255 3798 c-46 -40 -77 -100 -73 -141 3 -30 11 -36 153 -109 83 -43
155 -77 160 -78 6 0 15 8 22 18 10 16 3 24 -52 64 -48 35 -69 45 -89 41 -38
-8 -76 21 -76 57 0 34 34 70 66 70 25 0 64 -43 64 -71 0 -17 106 -99 127 -99
5 0 14 9 20 20 11 17 1 31 -105 140 -134 138 -152 145 -217 88z"/>
<path d="M3757 3638 c-23 -8 -249 -121 -359 -179 -16 -9 -15 -15 17 -78 l34
-68 73 37 c40 20 125 61 188 90 124 58 160 83 160 112 0 28 -27 76 -49 88 -23
12 -27 12 -64 -2z"/>
<path d="M1010 3601 c-16 -15 -32 -41 -36 -57 -6 -23 -2 -32 25 -55 24 -20
323 -167 402 -197 11 -5 70 121 61 129 -9 9 -362 186 -397 199 -23 9 -30 6
-55 -19z"/>
<path d="M3750 3398 c-19 -6 -39 -13 -45 -17 -5 -5 -59 -34 -120 -66 -130 -68
-117 -59 -110 -78 6 -13 13 -13 66 -1 46 11 68 23 94 50 27 28 39 34 57 29 29
-9 58 -41 58 -66 0 -44 -77 -78 -107 -48 -9 9 -28 7 -77 -6 -52 -14 -66 -22
-66 -37 0 -10 7 -21 16 -25 22 -8 238 15 301 33 70 19 74 38 37 146 -32 90
-46 101 -104 86z"/>
<path d="M1028 3360 c-24 -14 -58 -112 -58 -165 0 -72 19 -79 223 -83 160 -4
169 -3 165 14 -5 27 -121 59 -164 44 -43 -14 -70 -13 -88 6 -36 35 -5 114 45
114 12 0 35 -15 53 -34 23 -25 48 -38 99 -51 73 -19 72 -20 81 10 6 22 2 25
-106 71 -32 13 -83 36 -114 50 -66 30 -112 38 -136 24z"/>
<path d="M3780 3094 c-63 -8 -144 -18 -180 -22 l-65 -7 0 -67 c0 -36 2 -68 5
-71 3 -2 104 2 225 9 216 13 220 14 243 39 31 37 30 88 -4 114 -31 24 -58 25
-224 5z"/>
<path d="M857 3062 c-23 -26 -22 -87 2 -111 11 -11 35 -22 53 -25 62 -10 408
-29 414 -23 4 3 9 35 11 71 6 64 5 66 -18 66 -13 0 -109 9 -214 20 -231 24
-228 24 -248 2z"/>
<path d="M3588 2873 c-45 -4 -48 -6 -48 -32 0 -27 2 -28 65 -35 57 -6 69 -4
94 15 26 19 32 20 57 8 39 -19 52 -60 30 -93 -22 -34 -68 -35 -108 -1 -22 18
-41 25 -73 25 -24 0 -50 3 -59 6 -13 5 -16 -1 -16 -28 l0 -34 133 -32 c138
-34 186 -39 217 -22 25 13 41 65 41 136 1 87 -11 94 -165 92 -66 -1 -142 -3
-168 -5z"/>
<path d="M968 2830 c-25 -19 -28 -28 -28 -86 0 -36 7 -80 14 -99 15 -34 16
-35 73 -35 42 0 94 12 186 43 71 24 128 47 128 50 -1 4 -1 14 -1 22 0 13 -12
14 -72 9 -61 -5 -76 -10 -91 -30 -37 -48 -117 -22 -117 38 0 52 70 79 110 43
16 -15 29 -16 92 -9 63 8 73 12 73 29 0 24 -28 29 -215 40 -119 7 -126 6 -152
-15z"/>
<path d="M3516 2649 c-31 -97 -38 -121 -35 -124 2 -1 69 -24 149 -50 80 -26
171 -55 203 -66 95 -32 118 -25 137 41 21 72 -14 90 -340 178 -41 12 -83 24
-92 27 -11 4 -19 2 -22 -6z"/>
<path d="M1225 2600 c-66 -21 -158 -48 -205 -61 -102 -27 -135 -54 -126 -102
7 -39 39 -67 76 -67 15 0 66 13 111 29 46 16 136 46 200 66 l116 36 -21 70
c-11 38 -22 69 -26 68 -3 0 -59 -18 -125 -39z"/>
<path d="M3449 2447 c-9 -17 -8 -23 7 -35 37 -28 90 -46 139 -46 42 -1 51 -5
64 -27 29 -53 -14 -110 -73 -95 -16 4 -29 17 -37 39 -8 24 -26 41 -64 62 -30
16 -60 25 -69 22 -16 -6 -23 -47 -8 -47 5 0 40 -25 78 -55 109 -87 171 -125
202 -125 69 0 141 146 98 202 -17 23 -77 49 -214 91 -112 35 -112 35 -123 14z"/>
<path d="M1390 2433 c-8 -3 -73 -25 -145 -50 -71 -25 -139 -53 -149 -63 -25
-24 -23 -65 5 -129 24 -57 42 -71 91 -71 37 0 55 10 160 92 126 98 130 102
123 121 -9 22 -11 22 -88 -13 -52 -23 -69 -37 -82 -64 -27 -57 -94 -57 -116 2
-8 21 -6 31 9 51 16 22 28 26 68 26 33 0 69 10 109 29 74 35 69 30 55 55 -11
22 -15 23 -40 14z"/>
<path d="M3323 2225 c-24 -30 -43 -60 -43 -65 0 -5 12 -17 28 -27 15 -10 59
-43 97 -73 137 -109 229 -170 257 -170 30 0 66 32 74 66 10 38 -37 88 -166
176 -14 10 -45 33 -70 53 -47 36 -129 95 -133 95 -1 0 -21 -25 -44 -55z"/>
<path d="M1430 2203 c-47 -37 -119 -93 -160 -124 -121 -91 -133 -105 -126
-141 9 -45 33 -68 72 -68 28 0 63 23 209 141 96 77 175 143 175 146 0 3 -12
20 -27 37 -16 17 -35 42 -43 54 l-15 23 -85 -68z"/>
<path d="M3220 2105 c-16 -19 -13 -24 38 -79 27 -29 51 -46 65 -46 29 0 67
-39 67 -67 0 -25 -44 -63 -71 -63 -29 0 -59 36 -59 71 0 23 -11 44 -42 78 -50
55 -48 54 -71 37 -17 -13 -16 -19 29 -93 122 -202 139 -217 215 -194 52 16
119 80 119 114 0 29 -45 80 -115 132 -22 16 -62 48 -90 70 -67 55 -71 57 -85
40z"/>
<path d="M1575 2055 c-220 -172 -224 -177 -185 -240 27 -44 105 -105 134 -105
39 1 69 38 180 223 45 75 46 80 29 93 -16 13 -23 9 -69 -42 -40 -43 -50 -61
-46 -82 8 -58 -66 -94 -108 -52 -39 39 -20 95 37 106 35 7 78 45 113 100 13
21 13 26 -1 39 -13 13 -22 9 -84 -40z"/>
<path d="M3022 1948 c-30 -17 -56 -37 -59 -44 -2 -7 17 -46 43 -86 26 -40 72
-111 102 -158 100 -155 136 -177 201 -122 30 25 32 29 21 57 -12 32 -241 384
-250 384 -3 0 -29 -14 -58 -31z"/>
<path d="M1750 1903 c-24 -38 -64 -99 -90 -138 -110 -168 -120 -202 -75 -245
30 -28 77 -31 104 -6 19 17 231 366 231 380 0 8 -105 76 -118 76 -5 0 -29 -30
-52 -67z"/>
<path d="M2878 1868 c-14 -12 -13 -19 11 -80 19 -50 32 -68 49 -73 33 -8 48
-47 32 -85 -16 -38 -51 -48 -86 -26 -33 22 -40 42 -26 79 9 25 7 39 -15 93
-25 63 -35 72 -61 56 -14 -10 -12 -23 39 -227 18 -74 36 -125 47 -133 23 -18
78 -9 150 26 54 26 57 29 60 67 2 36 -7 55 -88 178 -50 75 -92 137 -93 137 -2
0 -10 -6 -19 -12z"/>
<path d="M1957 1843 c-8 -16 -31 -57 -52 -93 -108 -185 -113 -204 -71 -238 31
-24 141 -55 170 -48 38 9 61 83 101 328 6 38 -29 59 -45 27 -29 -53 -47 -124
-37 -146 23 -51 -22 -103 -78 -89 -54 14 -59 99 -7 117 35 12 94 145 71 160
-24 15 -37 10 -52 -18z"/>
<path d="M2154 1763 c-3 -27 -17 -102 -30 -167 -32 -160 -40 -251 -24 -271 6
-8 28 -17 48 -21 68 -13 96 47 133 289 32 205 36 188 -41 203 -36 7 -68 13
-72 13 -4 1 -10 -20 -14 -46z"/>
<path d="M2630 1796 c-64 -14 -62 -4 -36 -171 23 -156 61 -296 82 -312 35 -26
108 -7 120 30 8 26 -2 104 -32 262 -37 187 -42 205 -62 204 -9 -1 -42 -7 -72
-13z"/>
<path d="M2366 1763 c-11 -37 -46 -253 -46 -283 0 -37 23 -85 45 -94 9 -3 50
-6 91 -6 121 0 132 27 95 225 -10 55 -22 117 -25 138 -6 34 -10 38 -34 35 -26
-3 -27 -5 -30 -71 -3 -61 0 -71 23 -98 14 -17 25 -37 25 -45 0 -22 -46 -64
-70 -64 -52 0 -79 79 -40 115 18 16 20 29 18 89 -3 64 -5 71 -25 74 -14 2 -23
-3 -27 -15z"/>
<path d="M4210 2340 c-41 -19 -47 -26 -63 -77 -44 -139 -173 -372 -280 -505
-62 -78 -212 -230 -287 -291 -336 -271 -726 -409 -1160 -408 -428 0 -797 128
-1145 396 -86 67 -238 221 -307 311 -103 134 -220 345 -268 482 -11 31 -26 62
-33 70 -24 23 -120 27 -194 7 -57 -16 -74 -26 -127 -79 -60 -60 -96 -128 -96
-182 0 -40 30 -109 58 -134 16 -14 46 -56 67 -95 208 -382 514 -703 870 -912
444 -261 974 -374 1460 -312 384 49 711 166 1012 362 317 206 576 483 777 831
31 54 70 111 85 126 37 34 66 126 57 182 -13 81 -82 170 -166 214 -74 39 -192
45 -260 14z m-53 -505 c1 -16 1 -16 -3 -2 -7 23 -16 22 -41 -5 -26 -29 -43
-62 -43 -84 0 -14 2 -15 18 -3 15 13 16 12 3 -3 -17 -22 -27 -23 -35 -2 -6 17
24 82 50 108 21 22 48 17 51 -9z m40 -1 c-3 -3 -12 -4 -19 -1 -8 3 -5 6 6 6
11 1 17 -2 13 -5z m67 -46 c30 -42 13 -98 -39 -132 -26 -17 -75 -7 -75 15 0 8
5 8 15 -1 22 -18 60 1 80 41 20 37 14 70 -18 100 l-22 21 22 -11 c12 -6 29
-21 37 -33z m-3400 1 c41 -36 51 -61 36 -89 -16 -31 -56 -25 -89 13 -24 26
-32 30 -42 20 -10 -11 -6 -20 21 -48 24 -25 36 -31 42 -22 5 8 8 7 8 -5 0 -25
-12 -22 -41 8 -35 38 -67 48 -95 29 -25 -16 -34 -68 -14 -80 17 -10 11 -25
-10 -25 -23 0 -25 -11 -9 -43 9 -19 7 -18 -10 3 -23 28 -27 58 -8 66 8 3 11
18 9 43 -3 31 0 42 19 55 13 9 31 16 41 16 10 0 18 4 18 9 0 5 9 13 21 16 16
6 28 -1 51 -29 34 -41 78 -50 78 -16 0 30 -66 93 -91 87 -21 -6 -27 8 -6 16
25 11 37 6 71 -24z m3270 -90 c-6 -11 -24 -2 -24 11 0 5 7 7 15 4 8 -4 12 -10
9 -15z m-3203 -106 c10 -14 10 -15 0 -7 -10 9 -21 8 -44 -4 -18 -8 -39 -18
-47 -22 -44 -20 -4 -115 54 -125 44 -9 67 -1 100 32 15 15 24 20 21 12 -3 -9
-25 -32 -49 -51 l-43 -36 -40 18 c-22 9 -49 30 -61 45 -40 51 -20 125 35 125
14 0 23 6 23 15 0 21 35 19 51 -2z m3072 0 c-7 -2 -19 -2 -25 0 -7 3 -2 5 12
5 14 0 19 -2 13 -5z m86 -64 c12 -36 1 -73 -32 -100 -25 -21 -80 -25 -95 -6
-8 10 -3 12 27 9 78 -8 115 74 61 134 l-25 27 27 -17 c14 -10 31 -31 37 -47z
m111 41 c0 -5 -7 -10 -15 -10 -8 0 -15 5 -15 10 0 6 7 10 15 10 8 0 15 -4 15
-10z m-3259 -43 c-8 -8 -14 -7 -23 2 -11 11 -10 12 0 6 9 -5 15 1 20 16 5 20
7 21 10 5 2 -10 -1 -23 -7 -29z m3079 13 c25 -25 25 -32 2 -61 -21 -25 -45
-22 -61 10 -7 13 -8 22 -1 26 5 3 10 -3 10 -14 0 -14 6 -21 19 -21 24 0 43 23
35 44 -8 20 -24 21 -24 1 0 -8 -4 -15 -9 -15 -5 0 -8 8 -7 18 0 9 -5 16 -12
14 -8 -1 -11 2 -7 8 10 16 33 12 55 -10z m-3266 -57 c-3 -12 16 -40 50 -77
l55 -60 23 19 c16 13 15 10 -4 -10 -15 -16 -29 -27 -31 -24 -2 2 -29 34 -60
70 -38 45 -55 72 -51 83 8 22 23 21 18 -1z m345 -77 c15 -8 34 -23 42 -33 13
-17 13 -17 -6 -1 -51 43 -120 30 -156 -29 -25 -41 -20 -85 13 -121 17 -17 18
-22 5 -17 -22 9 -57 66 -57 94 0 35 28 80 63 101 38 24 59 25 96 6z m2694 -13
c-7 -2 -19 -2 -25 0 -7 3 -2 5 12 5 14 0 19 -2 13 -5z m97 -93 c0 -18 -26 -59
-48 -77 -32 -26 -122 -5 -122 28 0 6 7 3 16 -5 17 -18 66 -21 94 -6 30 16 43
68 25 103 -22 43 -19 46 10 7 14 -19 25 -41 25 -50z m-2799 44 l24 -26 -27 12
c-15 7 -29 19 -32 26 -8 22 8 16 35 -12z m2719 -4 c30 -30 24 -59 -13 -73 -13
-5 -26 2 -44 21 l-25 27 27 3 c21 3 26 8 22 23 -7 25 8 24 33 -1z m170 2 c0
-13 -12 -22 -22 -16 -10 6 -1 24 13 24 5 0 9 -4 9 -8z m-2940 -16 c-18 -23 -8
-59 22 -76 22 -12 33 -13 60 -3 l33 12 -24 -19 c-31 -27 -67 -25 -96 5 -27 26
-32 64 -13 83 17 17 33 15 18 -2z m271 -19 c18 -12 40 -35 49 -50 14 -27 14
-29 -7 -47 -13 -10 -23 -21 -23 -24 0 -4 -11 -24 -25 -46 -29 -47 -59 -52
-110 -20 -43 27 -61 74 -40 107 9 13 25 23 38 22 21 -1 20 -1 -3 -8 -41 -11
-38 -52 5 -90 41 -36 80 -39 99 -8 9 16 5 24 -29 54 -22 20 -34 33 -27 29 7
-5 16 1 22 16 l11 23 -5 -23 c-4 -19 -1 -22 17 -17 20 5 20 5 4 -5 -14 -9 -16
-15 -6 -26 17 -21 42 -18 36 5 -3 14 0 17 14 14 14 -4 19 0 19 14 0 27 -76 86
-101 80 -21 -6 -27 8 -6 16 23 10 34 7 68 -16z m-71 -28 c0 -5 -4 -8 -9 -5 -5
4 -11 0 -14 -6 -2 -7 -8 -9 -13 -5 -5 4 -2 12 6 17 20 13 30 12 30 -1z m248
-83 c63 -33 93 -96 45 -96 -14 0 -15 2 -4 9 21 13 7 37 -38 66 -49 31 -55 31
-48 3 6 -20 5 -20 -11 -4 -15 15 -15 18 -2 26 20 13 26 12 58 -4z m-441 -2
c-3 -3 -12 -4 -19 -1 -8 3 -5 6 6 6 11 1 17 -2 13 -5z m2527 -10 c9 -8 16 -19
16 -23 0 -4 11 -13 25 -19 50 -23 40 -98 -16 -109 -16 -3 -29 -9 -29 -14 0
-13 -42 -49 -58 -49 -8 0 -29 15 -48 34 -28 28 -34 41 -33 73 l2 38 6 -42 c9
-52 26 -73 61 -73 34 0 54 23 47 51 -4 17 -3 19 6 10 24 -24 77 3 77 40 0 23
-45 53 -66 45 -13 -5 -14 -4 -6 7 14 16 6 27 -19 27 -22 0 -44 -36 -29 -45 5
-3 15 -3 22 1 7 4 8 3 4 -4 -10 -17 -33 -15 -40 4 -6 15 34 64 53 64 5 0 17
-7 25 -16z m-2204 -73 c-16 -30 -12 -50 15 -76 40 -40 116 -30 135 18 6 16 9
17 9 5 1 -25 -56 -68 -91 -68 -16 0 -43 9 -59 21 -23 16 -29 28 -29 58 0 20 5
42 12 49 17 17 20 15 8 -7z m1987 -37 c-3 -3 -12 -4 -19 -1 -8 3 -5 6 6 6 11
1 17 -2 13 -5z m-37 -8 c0 -2 -7 -7 -16 -10 -8 -3 -12 -2 -9 4 6 10 25 14 25
6z m64 -5 c3 -5 -10 -18 -29 -30 -26 -15 -35 -27 -35 -47 0 -52 55 -83 90 -51
12 10 12 9 1 -5 -21 -28 -6 -51 27 -44 20 5 23 4 12 -4 -25 -17 -61 -12 -67 9
-3 11 -10 18 -17 15 -7 -3 -24 5 -39 16 -20 16 -27 31 -27 55 0 19 -4 37 -10
40 -5 3 -10 10 -10 16 0 5 8 4 18 -2 15 -9 24 -8 45 6 15 9 27 21 27 26 0 12
7 11 14 0z m-1803 -37 c-35 -29 -41 -67 -14 -96 20 -22 31 -23 55 -1 17 15 18
15 18 -10 0 -37 33 -54 66 -32 37 24 32 61 -11 87 -35 20 -42 42 -14 44 9 1
10 -1 2 -3 -20 -7 -15 -17 17 -35 26 -15 32 -15 36 -3 3 8 2 20 -2 27 -4 7 1
6 11 -3 13 -13 15 -21 6 -37 -6 -11 -11 -29 -11 -40 0 -27 -38 -72 -61 -72
-11 0 -30 10 -43 23 -13 12 -36 23 -51 24 -38 3 -49 16 -48 59 1 34 43 94 66
94 5 0 -5 -12 -22 -26z m1609 0 c0 -24 -33 -34 -51 -16 -14 16 -14 18 5 28 25
13 46 7 46 -12z m-1136 -44 c38 -16 46 -24 46 -45 0 -14 -6 -28 -14 -31 -10
-4 -12 -16 -9 -45 4 -24 1 -45 -7 -54 -7 -8 -20 -30 -29 -48 -10 -19 -25 -33
-39 -35 -39 -6 -88 17 -101 46 l-13 27 25 -24 c33 -30 111 -41 120 -17 5 13 0
16 -26 17 -18 0 -26 3 -19 6 14 5 17 33 3 33 -6 0 -13 -4 -16 -10 -3 -5 -19
-10 -35 -10 -34 0 -60 31 -60 71 0 30 34 79 56 79 8 0 14 8 14 18 0 23 19 42
41 42 10 0 38 -9 63 -20z m1131 -25 c28 -27 35 -94 12 -113 -10 -8 -12 -3 -9
26 5 51 -12 92 -38 92 -12 0 -18 5 -15 10 10 16 24 12 50 -15z m-86 -31 c24
-30 28 -76 8 -92 -10 -8 -12 -3 -9 26 7 76 -77 100 -110 32 -15 -30 -17 -32
-15 -10 2 29 51 70 83 70 12 0 32 -12 43 -26z m-155 -45 c-6 -11 -24 -2 -24
11 0 5 7 7 15 4 8 -4 12 -10 9 -15z m106 -8 c5 -11 10 -25 10 -31 0 -20 -49
-60 -75 -60 -29 0 -65 32 -65 58 0 12 4 10 13 -8 16 -31 61 -39 88 -14 22 20
25 44 7 62 -9 9 -9 12 0 12 6 0 16 -9 22 -19z m-466 -9 c2 -4 -13 -6 -35 -4
-31 3 -39 1 -39 -12 0 -9 6 -16 12 -16 7 0 2 -7 -10 -16 -35 -24 -26 -64 18
-86 19 -10 29 -18 23 -18 -22 0 -14 -28 10 -33 20 -4 20 -4 -3 -6 -29 -1 -51
15 -44 33 3 7 -7 18 -21 24 -20 9 -25 19 -25 46 0 19 4 37 9 40 5 3 7 15 4 25
-3 13 1 21 14 24 30 8 82 7 87 -1z m100 -14 c30 -42 10 -128 -30 -128 -10 0
-9 5 6 20 35 35 23 108 -20 123 -10 4 -8 6 7 6 12 1 29 -9 37 -21z m169 8 c4
-10 0 -12 -15 -8 -11 3 -24 -1 -29 -9 -6 -11 -9 -11 -9 -1 0 7 10 17 23 22 12
5 23 9 23 9 1 1 4 -5 7 -13z m-490 -3 c-7 -2 -19 -2 -25 0 -7 3 -2 5 12 5 14
0 19 -2 13 -5z m409 -23 c-6 -41 13 -60 59 -60 28 0 42 6 53 22 l16 22 0 -22
c0 -17 -10 -27 -35 -37 -57 -24 -105 7 -105 68 0 19 7 37 15 37 1 0 0 -14 -3
-30z m119 13 c13 -16 12 -17 -3 -4 -17 13 -22 21 -14 21 2 0 10 -8 17 -17z
m-488 -26 c3 -8 1 -20 -4 -28 -6 -10 -9 -7 -9 14 0 29 5 35 13 14z m-100 -46
c4 -29 2 -40 -4 -30 -8 13 -14 88 -5 78 2 -2 6 -24 9 -48z m531 20 c-2 -3 -12
3 -22 13 -16 17 -16 18 5 5 12 -7 20 -15 17 -18z m-376 -30 c-2 -8 -15 -23
-30 -34 -38 -28 -75 -17 -94 29 -8 20 -13 38 -11 40 2 3 10 -9 16 -25 14 -33
42 -44 78 -30 21 8 24 14 21 41 -5 28 -4 29 9 12 7 -10 12 -25 11 -33z m163
-74 c-10 -9 -11 -8 -5 6 3 10 9 15 12 12 3 -3 0 -11 -7 -18z"/>
<path d="M3778 1319 c-23 -25 -23 -39 2 -39 21 0 40 27 33 48 -6 16 -14 14
-35 -9z"/>
<path d="M3150 1014 c0 -8 5 -12 10 -9 6 3 10 10 10 16 0 5 -4 9 -10 9 -5 0
-10 -7 -10 -16z"/>
<path d="M1963 964 c-3 -7 -1 -18 3 -25 4 -7 3 -10 -2 -7 -17 10 -54 -11 -64
-37 -21 -54 31 -106 70 -70 20 18 17 45 -5 45 -7 0 -16 -6 -18 -12 -4 -9 -6
-8 -6 2 -2 29 29 60 58 60 28 0 47 22 36 40 -9 14 -67 18 -72 4z"/>
<path d="M2045 941 c-9 -16 3 -31 26 -31 14 0 19 6 17 17 -4 20 -33 29 -43 14z"/>
<path d="M1967 893 c-4 -3 2 -12 13 -20 11 -8 20 -21 20 -29 0 -9 6 -14 13
-11 6 2 20 0 30 -5 14 -7 17 -4 17 16 0 13 -7 32 -16 40 -15 16 -65 22 -77 9z"/>
<path d="M2013 805 c-3 -9 -3 -19 1 -22 8 -9 37 18 30 28 -8 14 -24 11 -31 -6z"/>
<path d="M3435 765 c-216 -94 -447 -161 -660 -192 -165 -23 -495 -23 -665 1
-205 28 -462 101 -626 177 -120 56 -221 28 -281 -77 -43 -75 -25 -192 39 -251
62 -58 433 -178 672 -218 156 -25 361 -45 477 -45 342 0 882 103 1149 220 36
16 77 31 91 35 75 19 118 110 98 207 -12 54 -61 118 -109 143 -54 28 -120 28
-185 0z m-1463 -236 c22 -12 24 -52 3 -69 -11 -9 -12 -17 -5 -30 15 -29 13
-30 -42 -30 -66 0 -81 -10 -81 -49 0 -42 11 -52 74 -61 46 -6 48 -8 17 -9 -41
-1 -56 -15 -38 -36 18 -22 57 -18 74 7 11 16 16 18 16 7 0 -25 -22 -39 -60
-39 -41 0 -84 26 -76 46 3 8 -6 25 -19 38 -28 28 -33 67 -11 85 18 15 26 71
13 92 -33 52 63 86 135 48z m1178 -30 c4 -8 15 -28 24 -46 27 -53 14 -111 -27
-114 -14 -1 -45 -5 -99 -15 -52 -9 -78 19 -78 85 0 42 4 53 26 70 15 12 34 21
43 21 9 0 3 -8 -16 -20 -35 -21 -49 -55 -39 -95 13 -50 80 -57 92 -10 l6 25
17 -21 c35 -43 89 9 61 60 -6 13 -22 22 -38 22 -23 2 -24 2 -4 6 30 6 29 33
-2 33 -31 0 -56 -28 -35 -41 11 -7 11 -9 -3 -9 -35 0 -11 54 27 63 27 6 37 3
45 -14z m-969 -9 c41 -23 52 -65 44 -182 l-7 -110 -30 6 c-17 3 -59 6 -94 6
-63 0 -64 0 -63 28 1 16 3 20 6 10 3 -14 15 -18 51 -18 26 0 64 -3 85 -6 l37
-7 0 36 c0 35 -1 36 -26 27 -38 -15 -107 -12 -132 6 -16 11 -22 25 -22 54 0
21 5 42 10 45 6 3 7 17 4 30 -5 20 -1 25 18 30 35 9 78 -10 78 -35 0 -17 -7
-20 -38 -20 -63 0 -85 -45 -37 -76 38 -25 93 -21 124 10 38 39 37 108 -2 142
-33 28 -74 31 -120 9 l-32 -16 24 21 c25 22 89 27 122 10z m705 2 c11 -7 21
-45 30 -117 4 -31 1 -46 -16 -68 -18 -23 -29 -27 -69 -27 -54 0 -77 18 -87 67
-7 37 23 74 59 72 22 -2 22 -2 0 -6 -51 -10 -58 -76 -11 -102 34 -19 73 -7
101 31 17 22 18 33 11 60 -10 33 -10 33 -84 38 -57 4 -75 9 -75 20 0 30 107
55 141 32z m-221 -26 c12 -8 16 -20 12 -34 -3 -12 -1 -25 5 -28 5 -3 7 -12 4
-20 -3 -8 -1 -23 6 -33 16 -26 3 -66 -27 -79 -36 -17 -111 -15 -128 3 -11 10
-15 38 -15 100 0 79 2 87 22 95 33 13 100 11 121 -4z m-216 -62 c58 -48 34
-144 -35 -144 -60 0 -74 14 -72 70 2 49 3 50 35 50 41 0 42 -12 3 -27 -37 -14
-38 -37 -4 -59 55 -36 116 25 84 83 -27 48 -99 54 -140 13 -31 -31 -28 -110 6
-144 34 -33 94 -36 125 -5 11 11 23 18 26 16 11 -12 -39 -47 -69 -48 -103 -4
-138 24 -138 112 0 50 13 74 48 93 43 24 96 20 131 -10z"/>
<path d="M1850 505 c-22 -26 5 -45 66 -45 61 0 77 15 44 42 -27 22 -93 24
-110 3z"/>
<path d="M1870 432 c0 -15 9 -19 45 -21 34 -1 45 2 45 12 0 18 -21 27 -61 27
-21 0 -29 -5 -29 -18z"/>
<path d="M2070 416 c0 -11 10 -16 31 -16 38 0 35 24 -4 28 -19 2 -27 -1 -27
-12z"/>
<path d="M2783 473 c-13 -2 -23 -9 -23 -14 0 -8 85 -8 130 0 3 1 -2 6 -10 11
-15 10 -56 11 -97 3z"/>
<path d="M2560 451 c-34 -9 -40 -41 -8 -41 13 0 33 -7 44 -15 25 -19 64 -19
64 0 0 18 -21 20 -38 3 -8 -8 -12 -8 -12 -1 0 6 14 16 30 22 72 25 0 54 -80
32z"/>
<path d="M2540 386 c0 -11 9 -16 26 -16 31 0 28 23 -4 28 -15 2 -22 -2 -22
-12z"/>
<path d="M2578 363 c-60 -10 -62 -68 -3 -79 64 -12 123 26 99 64 -11 17 -47
23 -96 15z"/>
</g>
</svg>
